HIERARCHY
ROOT Hips
{
	OFFSET 56.877701 -32.693596 43.373703
	CHANNELS 6 Xposition Yposition Zposition Zrotation Xrotation Yrotation
	JOINT Chest
	{
		OFFSET -0.779999 1.005800 5.403099
		CHANNELS 6 Xposition Yposition Zposition Zrotation Xrotation Yrotation
		JOINT Chest2
		{
			OFFSET 0.000000 0.000000 4.236801
			CHANNELS 6 Xposition Yposition Zposition Zrotation Xrotation Yrotation
			JOINT Neck
			{
				OFFSET 0.000000 0.000000 9.874401
				CHANNELS 6 Xposition Yposition Zposition Zrotation Xrotation Yrotation
				JOINT Head
				{
					OFFSET 0.000000 0.000002 2.173893
					CHANNELS 6 Xposition Yposition Zposition Zrotation Xrotation Yrotation
					End Site
					{
						OFFSET 0.000000 0.000000 6.508102
					}
				}
			}
			JOINT LeftCollar
			{
				OFFSET 2.681599 -0.377600 5.432499
				CHANNELS 6 Xposition Yposition Zposition Zrotation Xrotation Yrotation
				JOINT LeftShoulder
				{
					OFFSET 5.161499 0.000000 0.000000
					CHANNELS 6 Xposition Yposition Zposition Zrotation Xrotation Yrotation
					JOINT LeftElbow
					{
						OFFSET 0.000000 0.000000 -10.869099
						CHANNELS 6 Xposition Yposition Zposition Zrotation Xrotation Yrotation
						JOINT LeftWrist
						{
							OFFSET 0.000000 0.000000 -13.344799
							CHANNELS 6 Xposition Yposition Zposition Zrotation Xrotation Yrotation
							End Site
							{
								OFFSET 0.000000 0.000000 -2.173901
							}
						}
					}
				}
			}
			JOINT RightCollar
			{
				OFFSET -2.381901 -1.419600 6.136600
				CHANNELS 6 Xposition Yposition Zposition Zrotation Xrotation Yrotation
				JOINT RightShoulder
				{
					OFFSET -4.550499 0.000000 0.000000
					CHANNELS 6 Xposition Yposition Zposition Zrotation Xrotation Yrotation
					JOINT RightElbow
					{
						OFFSET 0.000000 0.000000 -11.106499
						CHANNELS 6 Xposition Yposition Zposition Zrotation Xrotation Yrotation
						JOINT RightWrist
						{
							OFFSET 0.000000 0.000000 -12.874298
							CHANNELS 6 Xposition Yposition Zposition Zrotation Xrotation Yrotation
							End Site
							{
								OFFSET 0.000000 0.000000 -2.173901
							}
						}
					}
				}
			}
		}
	}
	JOINT LeftHip
	{
		OFFSET 2.431900 0.469601 -2.489399
		CHANNELS 6 Xposition Yposition Zposition Zrotation Xrotation Yrotation
		JOINT LeftKnee
		{
			OFFSET 0.000000 -0.000004 -18.200201
			CHANNELS 6 Xposition Yposition Zposition Zrotation Xrotation Yrotation
			JOINT LeftAnkle
			{
				OFFSET 0.000000 0.000000 -16.279900
				CHANNELS 6 Xposition Yposition Zposition Zrotation Xrotation Yrotation
				End Site
				{
					OFFSET 0.000000 -8.394100 0.000000
				}
			}
		}
	}
	JOINT RightHip
	{
		OFFSET -1.987999 -0.073502 -2.713001
		CHANNELS 6 Xposition Yposition Zposition Zrotation Xrotation Yrotation
		JOINT RightKnee
		{
			OFFSET 0.000000 -0.000004 -19.547802
			CHANNELS 6 Xposition Yposition Zposition Zrotation Xrotation Yrotation
			JOINT RightAnkle
			{
				OFFSET 0.000000 0.000000 -14.881199
				CHANNELS 6 Xposition Yposition Zposition Zrotation Xrotation Yrotation
				End Site
				{
					OFFSET 0.000000 -7.922699 0.000000
				}
			}
		}
	}
}
MOTION
Frames: 7
Frame Time: 0.041667
-10.848915 -8.938196 46.904102 4679.612421 2.158375 1.509157 -0.780002 1.005800 5.403098 0.329807 -2.532442 -1.396781 0.000002 0.000001 4.236795 -1.914413 1.930973 -0.023768 0.000000 -0.000002 9.874395 0.969643 -0.854089 4.467110 0.000009 0.000002 2.173896 -0.420434 -0.108311 -0.790714 2.681600 -0.377601 5.432499 -15.388428 4.262838 -9.215235 5.161502 0.000004 -0.000006 136.878330 -159.339981 142.335746 0.000002 -0.000003 -10.869093 -321.274477 -24.039884 -294.844950 0.000010 0.000004 -13.344801 11.293061 3.918029 -42.665460 -2.381897 -1.419598 6.136599 19.657483 3.588544 7.091905 -4.550502 -0.000009 -0.000002 -1226.506249 -510.670186 -502.976551 0.000007 -0.000005 -11.106492 620.559241 -64.294879 601.179918 0.000003 0.000007 -12.874301 -278.527055 -0.599209 80.422411 2.431898 0.469600 -2.489397 -348.220638 -12.271645 -0.433070 0.000000 -0.000003 -18.200199 362.773750 34.485984 0.350377 0.000000 0.000001 -16.279900 -22.886704 55.565177 -6.023722 -1.988003 -0.073503 -2.712995 -15.385090 -10.624724 -1.227874 -0.000006 -0.000002 -19.547798 -1457.251131 36.019371 -353.285961 -0.000002 0.000004 -14.881198 2010.059759 113.985161 -535.108876
-10.954704 -8.946600 46.920609 4680.328444 2.623698 1.715441 -0.779996 1.005801 5.403090 -0.417156 -3.010597 -1.547626 -0.000001 -0.000001 4.236798 -1.874593 1.947431 -0.030170 0.000004 0.000001 9.874393 0.946019 -0.997753 4.198025 0.000000 0.000004 2.173885 -0.445525 -0.194104 -0.735328 2.681602 -0.377602 5.432491 -15.589606 4.326284 -9.420509 5.161510 -0.000002 0.000004 136.758842 -159.346237 142.372534 -0.000002 -0.000002 -10.869104 -321.269176 -24.021007 -294.832301 0.000010 -0.000003 -13.344807 11.364155 4.431582 -43.281553 -2.381895 -1.419599 6.136589 19.479054 3.482356 6.912331 -4.550492 -0.000002 -0.000006 -1226.526139 -510.872906 -503.006659 0.000005 -0.000012 -11.106494 620.964244 -64.602593 601.284065 0.000003 -0.000010 -12.874298 -279.617617 -0.523940 79.402663 2.431900 0.469600 -2.489400 -348.410245 -13.168061 -0.505160 0.000007 -0.000004 -18.200197 360.854876 35.193240 0.884185 -0.000004 0.000003 -16.279898 -21.545847 55.594960 -6.198853 -1.987998 -0.073498 -2.713000 -15.508455 -11.006042 -1.418587 0.000000 0.000000 -19.547798 -1462.010079 35.329737 -351.482955 -0.000003 0.000004 -14.881199 2014.951485 113.289418 -536.443604
-11.064201 -8.959599 46.935806 4680.843385 3.053272 2.003887 -0.780002 1.005798 5.403103 -0.963625 -3.543389 -1.842941 0.000007 0.000001 4.236799 -1.887767 2.011311 -0.024815 0.000005 0.000001 9.874402 0.916797 -0.951967 3.994221 0.000000 0.000002 2.173900 -0.481485 -0.327517 -0.692466 2.681603 -0.377598 5.432503 -15.835237 4.586699 -9.598691 5.161502 -0.000002 0.000006 136.618031 -159.263865 142.322824 0.000002 0.000003 -10.869086 -321.441133 -24.347507 -294.993029 0.000003 -0.000004 -13.344801 11.925820 4.169084 -43.911389 -2.381891 -1.419595 6.136595 19.517120 3.536828 6.828759 -4.550493 -0.000006 -0.000005 -1226.414014 -511.178242 -502.945405 0.000009 -0.000007 -11.106498 620.998067 -64.994277 601.412582 -0.000004 -0.000002 -12.874298 -280.181081 -0.070378 80.034982 2.431896 0.469597 -2.489392 -348.315797 -14.121816 -0.653246 0.000000 -0.000004 -18.200199 359.939249 35.873878 1.005349 0.000001 0.000002 -16.279903 -20.968129 55.891079 -6.580122 -1.988005 -0.073497 -2.712991 -16.041918 -11.546875 -1.774970 0.000005 -0.000002 -19.547802 -1462.237169 35.705630 -351.084182 0.000002 0.000003 -14.881198 2017.660612 113.647483 -539.178849
-11.155914 -8.989296 46.951809 4680.960100 3.166023 2.263789 -0.780001 1.005803 5.403095 -1.101780 -3.726447 -2.093517 0.000005 -0.000001 4.236796 -1.925839 2.029248 -0.029775 0.000002 -0.000001 9.874394 0.900018 -0.910132 3.808724 0.000000 0.000004 2.173901 -0.525272 -0.424179 -0.628798 2.681598 -0.377602 5.432487 -15.890515 4.565329 -9.850804 5.161500 0.000002 -0.000005 136.460882 -159.216176 142.518263 0.000010 -0.000000 -10.869093 -321.589348 -24.319505 -295.088761 0.000008 0.000003 -13.344801 12.162719 3.963936 -44.629709 -2.381903 -1.419599 6.136593 19.378155 3.500670 6.792217 -4.550507 0.000000 -0.000010 -1226.344729 -511.407791 -503.079004 0.000004 -0.000008 -11.106489 621.926208 -64.859565 602.108387 -0.000006 0.000000 -12.874297 -280.052974 0.352171 80.816629 2.431899 0.469599 -2.489397 -348.271127 -14.612476 -0.834806 0.000002 -0.000004 -18.200195 358.554250 36.512053 1.367075 -0.000003 -0.000004 -16.279898 -19.648984 55.927713 -7.529101 -1.988002 -0.073500 -2.712991 -16.365502 -11.885730 -1.954582 -0.000002 -0.000003 -19.547800 -1462.223509 36.211105 -350.730706 -0.000007 0.000000 -14.881193 2020.667862 113.944740 -542.399092
-11.234299 -9.018894 46.970299 4680.908955 3.201835 2.208154 -0.779994 1.005802 5.403093 -1.048295 -3.768250 -2.038585 -0.000002 0.000003 4.236792 -1.947944 2.010193 -0.027342 0.000006 0.000000 9.874399 0.878445 -0.868432 3.699072 0.000003 0.000003 2.173898 -0.516224 -0.664752 -0.623072 2.681603 -0.377594 5.432493 -15.886137 4.588053 -9.938753 5.161502 0.000000 -0.000002 136.306534 -159.083889 142.527948 0.000002 0.000001 -10.869085 -321.993040 -24.342401 -295.243123 0.000001 -0.000000 -13.344806 12.374659 3.669921 -45.239191 -2.381891 -1.419596 6.136590 19.148152 3.382905 6.750386 -4.550507 -0.000005 0.000003 -1225.991417 -511.785856 -503.141732 0.000010 -0.000008 -11.106495 622.904892 -64.406498 603.065324 0.000000 -0.000001 -12.874293 -279.540464 0.215038 81.183014 2.431906 0.469603 -2.489403 -348.089909 -14.870976 -0.695361 0.000000 -0.000006 -18.200205 357.810989 36.994036 1.464918 0.000002 0.000002 -16.279900 -18.546843 56.253735 -8.951952 -1.987997 -0.073503 -2.712995 -17.236001 -12.504286 -1.910980 -0.000005 -0.000002 -19.547798 -1461.562237 37.172454 -350.210327 -0.000007 0.000004 -14.881194 2023.334586 114.289152 -545.133517
-11.298996 -9.065304 46.977001 4680.368660 2.993864 2.068311 -0.779998 1.005801 5.403085 -0.496368 -3.595497 -1.798780 0.000004 0.000001 4.236804 -2.120377 2.022654 -0.036935 -0.000002 0.000001 9.874394 0.968398 -0.846672 3.418976 0.000005 0.000004 2.173897 -0.454931 -0.686044 -0.529825 2.681596 -0.377600 5.432493 -15.723990 4.517468 -10.284146 5.161503 0.000000 -0.000002 136.091847 -159.074628 142.737362 0.000006 0.000000 -10.869089 -322.043693 -24.427323 -295.346942 0.000005 -0.000001 -13.344798 12.493476 3.571792 -45.227651 -2.381904 -1.419598 6.136594 19.183554 3.271196 6.599120 -4.550501 -0.000002 0.000002 -1225.894264 -512.014640 -503.113483 0.000008 -0.000005 -11.106502 623.135589 -64.620700 603.075815 0.000002 -0.000005 -12.874299 -280.070459 0.691457 81.181142 2.431899 0.469602 -2.489407 -347.697910 -14.740081 -0.597174 0.000003 -0.000004 -18.200195 357.400331 37.277253 1.569906 0.000003 -0.000000 -16.279902 -17.694901 56.482717 -10.009791 -1.987998 -0.073499 -2.713001 -17.807317 -13.072089 -1.743306 0.000005 -0.000003 -19.547802 -1460.753870 38.390260 -349.587851 -0.000005 0.000002 -14.881191 2025.487025 114.802339 -547.066460
-11.368301 -9.104099 46.975201 4679.553409 2.953973 1.897120 -0.779996 1.005802 5.403093 0.336327 -3.648667 -1.622205 0.000002 -0.000003 4.236800 -2.278863 2.068987 -0.026399 0.000003 0.000001 9.874393 1.043121 -0.753352 3.344435 0.000005 0.000000 2.173896 -0.410263 -0.767079 -0.484361 2.681598 -0.377599 5.432498 -15.526176 4.511112 -10.479937 5.161503 0.000000 -0.000012 135.820224 -159.019535 142.760707 0.000004 -0.000002 -10.869094 -322.060932 -24.515379 -295.239571 0.000005 0.000000 -13.344807 12.851053 3.423126 -45.840910 -2.381903 -1.419598 6.136598 19.145838 3.215890 6.718936 -4.550499 -0.000003 0.000000 -1225.695369 -512.161571 -503.267244 0.000010 -0.000004 -11.106493 623.152746 -64.637966 603.163132 0.000000 -0.000001 -12.874296 -279.894349 0.469874 80.999767 2.431901 0.469598 -2.489400 -347.039644 -14.742557 -0.467603 -0.000000 -0.000005 -18.200203 357.437405 37.411924 1.566276 -0.000002 0.000004 -16.279896 -17.256493 56.968508 -11.188453 -1.988000 -0.073494 -2.713008 -19.023923 -14.096739 -1.846617 -0.000007 -0.000002 -19.547802 -1459.299969 40.182990 -348.679327 -0.000006 0.000000 -14.881191 2026.245231 115.693774 -547.036244
